<?xml version="1.0" encoding="UTF-8"?>
<svg id="Layer_1" data-name="Layer 1" xmlns="http://www.w3.org/2000/svg" viewBox="0 0 1080 476.94">
  <defs>
    <style>
      .cls-1 {
        fill: #fffdfa;
      }

      .cls-1, .cls-2, .cls-3 {
        stroke-width: 0px;
      }

      .cls-2 {
        fill: #d9a75f;
      }

      .cls-3 {
        fill: #efbf78;
      }
    </style>
  </defs>
  <g>
    <g>
      <path class="cls-1" d="M377.71,206.77l25.11-58.38c2.27-5.21,2.8-8.42,2.8-10.95l8.28-.8,29.25,66.79c4.14,9.75,5.75,12.69,12.56,13.76v3.2h-31.39v-3.2c8.15-1.34,8.15-4.01,5.75-9.35l-3.34-7.61c-1.6-3.61-4.01-4.54-7.74-4.54h-24.85c-3.48,0-6.28.8-7.61,4.01l-3.34,7.48c-2.54,6.01.67,8.95,8.68,10.02v3.2h-26.45v-3.2c6.55-1.34,9.35-3.88,12.29-10.42ZM393.47,191.14h25.92c1.6,0,3.07-1.34,2.14-3.34l-13.76-31.66c-.93-2.27-1.6-2.27-2.67.13l-13.49,31.39c-.93,2.14.13,3.48,1.87,3.48Z"/>
      <path class="cls-1" d="M526.88,210.11v-62.39c0-4.94-2.8-6.28-8.28-7.08v-3.2h38.21c20.44,0,31.66,8.28,31.66,22.44,0,10.82-6.55,17.63-19.37,20.57-.93.27-.93,1.07,0,1.34,7.88,2.27,12.29,8.01,14.83,16.3,4.28,12.96,6.68,19.11,12.16,19.11v3.2h-4.41c-13.63,0-16.83-5.21-22.31-21.64-4.01-11.89-9.22-15.76-19.5-15.76-7.35,0-9.22,2.27-9.22,7.35v19.77c0,4.94,2.8,6.15,9.62,7.08v3.2h-31.66v-3.2c5.48-.93,8.28-2.14,8.28-7.08ZM547.99,178.58h8.55c13.36,0,18.03-8.15,18.03-18.43s-4.54-18.43-17.9-18.43h-7.75c-6.01,0-8.28,1.34-8.28,6.28v23.38c0,5.08,1.87,7.21,7.35,7.21Z"/>
      <path class="cls-1" d="M659.62,178.58c0-27.38,21.11-43.28,44.62-43.28,20.17,0,31.92,11.76,31.92,21.51,0,4.94-2.94,8.82-8.28,8.82-4.67,0-7.61-3.07-8.01-8.68-.54-7.88-6.01-17.23-20.04-17.23-15.76,0-26.18,12.16-26.18,32.06,0,25.25,17.1,41.14,37.54,41.14,9.35,0,16.7-3.47,23.65-11.22l2.14,1.74c-3.48,6.41-14.43,18.3-33.8,18.3-22.58,0-43.55-15.9-43.55-43.15Z"/>
      <path class="cls-1" d="M806.16,210.11v-62.39c0-4.94-2.8-6.28-8.28-7.08v-3.2h30.33v3.2c-5.48.8-8.28,2.14-8.28,7.08v24.98c0,3.21,1.74,4.54,4.94,4.54h31.12c3.21,0,5.08-1.34,5.08-4.54v-24.98c0-4.94-2.94-6.28-8.42-7.08v-3.2h30.32v3.2c-5.47.8-8.28,2.14-8.28,7.08v62.39c0,4.94,2.81,6.15,8.28,7.08v3.2h-30.32v-3.2c5.48-.93,8.42-2.14,8.42-7.08v-24.31c0-3.21-1.87-4.54-4.94-4.54h-31.39c-3.08,0-4.81,1.34-4.81,4.54v24.31c0,4.94,2.8,6.15,8.28,7.08v3.2h-30.33v-3.2c5.48-.93,8.28-2.14,8.28-7.08Z"/>
      <path class="cls-1" d="M950.69,210.11v-62.39c0-4.94-2.8-6.28-8.28-7.08v-3.2h61.72c1.2,0,1.87.4,2,1.6.4,3.47.8,7.48,2.67,15.09h-2.8c-3.34-8.15-8.15-12.42-16.97-12.42h-16.3c-5.48,0-8.28,1.47-8.28,6.54v21.51c0,5.08,2.8,6.41,8.28,6.41h12.02c8.68,0,10.42-3.34,11.49-9.62h2.14v23.51h-2.14c-1.07-6.14-2.81-9.75-11.49-9.75h-12.02c-5.48,0-8.28,1.34-8.28,6.41v22.84c0,4.94,2.67,6.55,11.75,6.55h15.1c9.62,0,12.43-3.61,14.83-7.35l3.2-4.94h2.81c-2.01,3.88-3.21,7.88-4.01,14.7-.13,1.2-.93,1.87-2.14,1.87h-63.59v-3.2c5.48-.93,8.28-2.14,8.28-7.08ZM956.97,115.53c0-1.47.53-2,2.27-2h38.61c1.74,0,2.27.53,2.27,2v1.87c0,1.47-.53,2-2.27,2h-38.61c-1.74,0-2.27-.53-2.27-2v-1.87Z"/>
    </g>
    <g>
      <path class="cls-1" d="M382.85,351.79v-62.39c0-4.94-2.8-6.28-8.28-7.08v-3.2h37.14c22.44,0,34.87,9.08,34.87,25.38s-12.43,26.05-34.87,26.05h-7.75c-5.48,0-7.35,2.27-7.35,7.48v13.76c0,4.94,2.8,6.15,9.62,7.08v3.2h-31.66v-3.2c5.48-.93,8.28-2.14,8.28-7.08ZM403.96,326.41h7.75c15.36,0,20.7-9.22,20.7-21.64s-5.34-21.37-20.7-21.37h-8.42c-4.68,0-6.68,1.34-6.68,6.28v29.39c0,5.07,1.87,7.35,7.35,7.35Z"/>
      <path class="cls-1" d="M526.88,351.79v-62.39c0-4.94-2.8-6.28-8.28-7.08v-3.2h38.21c20.44,0,31.66,8.28,31.66,22.44,0,10.82-6.55,17.63-19.37,20.57-.93.27-.93,1.07,0,1.34,7.88,2.27,12.29,8.02,14.83,16.3,4.28,12.96,6.68,19.11,12.16,19.11v3.2h-4.41c-13.63,0-16.83-5.21-22.31-21.64-4.01-11.89-9.22-15.76-19.5-15.76-7.35,0-9.22,2.27-9.22,7.35v19.77c0,4.94,2.8,6.15,9.62,7.08v3.2h-31.66v-3.2c5.48-.93,8.28-2.14,8.28-7.08ZM547.99,320.26h8.55c13.36,0,18.03-8.15,18.03-18.43s-4.54-18.43-17.9-18.43h-7.75c-6.01,0-8.28,1.34-8.28,6.28v23.38c0,5.08,1.87,7.21,7.35,7.21Z"/>
      <path class="cls-1" d="M671.71,351.79v-62.39c0-4.94-2.8-6.28-8.28-7.08v-3.2h61.72c1.2,0,1.87.4,2,1.6.4,3.47.8,7.48,2.67,15.09h-2.8c-3.34-8.15-8.15-12.42-16.97-12.42h-16.3c-5.48,0-8.28,1.47-8.28,6.54v21.51c0,5.07,2.8,6.41,8.28,6.41h12.02c8.68,0,10.42-3.34,11.49-9.62h2.14v23.51h-2.14c-1.07-6.15-2.81-9.75-11.49-9.75h-12.02c-5.48,0-8.28,1.34-8.28,6.41v22.84c0,4.94,2.67,6.55,11.75,6.55h15.1c9.62,0,12.43-3.61,14.83-7.35l3.2-4.94h2.81c-2.01,3.88-3.21,7.88-4.01,14.7-.13,1.2-.93,1.87-2.14,1.87h-63.59v-3.2c5.48-.93,8.28-2.14,8.28-7.08Z"/>
      <path class="cls-1" d="M811.83,356.06c-3.74-9.35-3.6-20.17.93-20.17,1.2,0,1.74.27,2.27,2,4.41,13.36,14.96,21.11,27.52,20.98,9.75-.13,16.03-4.81,16.03-14.16,0-11.75-10.69-14.3-22.44-18.17-14.7-4.94-26.05-12.43-26.05-26.45s11.62-23.11,30.19-23.11c9.62,0,18.43,2.41,24.85,6.28,3.74,9.35,3.61,20.17-.93,20.17-1.2,0-1.74-.27-2.27-2-4.41-13.36-14.43-20.04-24.98-20.04s-14.7,7.21-14.7,14.16c0,10.02,8.28,13.89,19.24,17.5,12.83,4.28,30.19,9.75,30.19,27.12s-17.23,23.25-33.53,23.25c-11.35,0-19.9-3.47-26.32-7.35Z"/>
      <path class="cls-1" d="M948.67,356.06c-3.74-9.35-3.6-20.17.93-20.17,1.2,0,1.74.27,2.27,2,4.41,13.36,14.96,21.11,27.52,20.98,9.75-.13,16.03-4.81,16.03-14.16,0-11.75-10.69-14.3-22.44-18.17-14.7-4.94-26.05-12.43-26.05-26.45s11.62-23.11,30.19-23.11c9.62,0,18.43,2.41,24.85,6.28,3.74,9.35,3.61,20.17-.93,20.17-1.2,0-1.74-.27-2.27-2-4.41-13.36-14.43-20.04-24.98-20.04s-14.7,7.21-14.7,14.16c0,10.02,8.28,13.89,19.24,17.5,12.83,4.28,30.19,9.75,30.19,27.12s-17.23,23.25-33.53,23.25c-11.35,0-19.9-3.47-26.32-7.35Z"/>
    </g>
  </g>
  <path class="cls-2" d="M174.04,164.19v228.33c-3.24-1.45-7.14-3.21-11.45-5.15v-211.73h-26.72v-11.45h38.17Z"/>
  <path class="cls-3" d="M147.32,195.56v163.86c-3.82-1.79-7.63-3.59-11.45-5.34v-158.52h11.45Z"/>
  <path class="cls-3" d="M120.8,195.56v148.67c-4.35-2.18-8.24-4.24-11.45-5.99v-142.68h11.45Z"/>
  <path class="cls-2" d="M94.29,149.21h0s79.67,0,79.67,0v-64.78h-11.45v53.33h-68.22c-14.57,0-26.43,11.86-26.43,26.44s11.86,26.43,26.43,26.43,26.43-11.86,26.43-26.43h-11.45c0,8.26-6.72,14.98-14.98,14.98s-14.98-6.72-14.98-14.98,6.72-14.98,14.98-14.98Z"/>
  <path class="cls-2" d="M189.25,164.19v228.33c3.24-1.45,7.14-3.21,11.45-5.15v-211.73h26.72s0-11.45,0-11.45h-38.17Z"/>
  <path class="cls-3" d="M215.97,195.56v163.86c3.82-1.79,7.63-3.59,11.45-5.34v-158.52s-11.45,0-11.45,0Z"/>
  <path class="cls-3" d="M242.49,195.56v148.67c4.35-2.18,8.24-4.24,11.45-5.99v-142.68s-11.45,0-11.45,0Z"/>
  <path class="cls-2" d="M269,149.21h0s-79.67,0-79.67,0v-64.78h11.45v53.33s68.22,0,68.22,0h0c14.57,0,26.43,11.86,26.43,26.44,0,14.57-11.86,26.43-26.43,26.43-14.57,0-26.43-11.86-26.43-26.43h11.45c0,8.26,6.72,14.98,14.98,14.98,8.26,0,14.98-6.72,14.98-14.98,0-8.26-6.72-14.98-14.98-14.98Z"/>
</svg>
