<?xml version="1.0" encoding="UTF-8"?>
<svg id="Layer_1" data-name="Layer 1" xmlns="http://www.w3.org/2000/svg" viewBox="245 145 590 790">
  <defs>
    <style>
      .cls-1 {
        fill: #be8735;
      }

      .cls-1, .cls-2 {
        stroke-width: 0px;
      }

      .cls-2 {
        fill: #925723;
      }
    </style>
  </defs>
  <path class="cls-1" d="M521.52,359.51v554.81c-7.88-3.52-17.34-7.79-27.82-12.52V387.33h-64.92v-27.82h92.75Z"/>
  <path class="cls-2" d="M456.6,435.75v398.16c-9.27-4.36-18.55-8.72-27.82-12.98v-385.18h27.82Z"/>
  <path class="cls-2" d="M392.16,435.75v361.25c-10.57-5.29-20.03-10.3-27.82-14.56v-346.69h27.82Z"/>
  <path class="cls-1" d="M327.75,323.11v-.02h193.58v-157.42h-27.82v129.59h-165.76v.02c-35.41,0-64.23,28.81-64.23,64.23s28.81,64.23,64.23,64.23,64.23-28.81,64.23-64.23h-27.82c0,20.07-16.33,36.4-36.4,36.4s-36.4-16.33-36.4-36.4,16.33-36.4,36.4-36.4Z"/>
  <path class="cls-1" d="M558.48,359.51v554.81c7.88-3.52,17.34-7.79,27.82-12.52V387.33h64.92s0-27.82,0-27.82h-92.75Z"/>
  <path class="cls-2" d="M623.4,435.75v398.16c9.27-4.36,18.55-8.72,27.82-12.98v-385.18s-27.82,0-27.82,0Z"/>
  <path class="cls-2" d="M687.84,435.75v361.25c10.57-5.29,20.03-10.3,27.82-14.56v-346.69s-27.82,0-27.82,0Z"/>
  <path class="cls-1" d="M752.25,323.11v-.02h-193.58v-157.42h27.82v129.59s165.76,0,165.76,0v.02c35.41,0,64.23,28.81,64.23,64.23,0,35.41-28.81,64.23-64.23,64.23-35.41,0-64.23-28.81-64.23-64.23h27.82c0,20.07,16.33,36.4,36.4,36.4,20.07,0,36.4-16.33,36.4-36.4,0-20.07-16.33-36.4-36.4-36.4Z"/>
</svg>
