<?xml version="1.0" encoding="UTF-8"?>
<svg xmlns="http://www.w3.org/2000/svg">
  <symbol id="kt-words" viewBox="0 0 24 24">
    <g fill="none" stroke="currentColor" stroke-linecap="round" stroke-linejoin="round" stroke-width="1.8">
      <rect x="4.5" y="5.5" width="15" height="14" rx="2.2" />
      <path d="M8 9.25h8M8 13h7M8 16.75h5" />
      <path d="M18 3.75v3M16.5 5.25h3" />
    </g>
  </symbol>

  <symbol id="kt-bible-passage" viewBox="0 0 24 24">
    <g fill="none" stroke="currentColor" stroke-linecap="round" stroke-linejoin="round" stroke-width="1.8">
      <path d="M4.5 5.5h5.25A3.25 3.25 0 0 1 13 8.75v10.5a3.25 3.25 0 0 0-3.25-2.75H4.5z" />
      <path d="M19.5 5.5h-5.25A3.25 3.25 0 0 0 11 8.75v10.5a3.25 3.25 0 0 1 3.25-2.75h5.25z" />
      <path d="M16.25 8.75v5M13.75 11.25h5" />
    </g>
  </symbol>

  <symbol id="kt-topic" viewBox="0 0 24 24">
    <g fill="none" stroke="currentColor" stroke-linecap="round" stroke-linejoin="round" stroke-width="1.8">
      <path d="M4.5 6.75v5.1l7.65 7.65 7.35-7.35L11.85 4.5h-5.1A2.25 2.25 0 0 0 4.5 6.75z" />
      <path d="M8.4 8.35h.01" />
      <path d="M13.25 8.75l2 2M10.75 11.25l2 2" />
    </g>
  </symbol>

  <symbol id="kt-series" viewBox="0 0 24 24">
    <g fill="none" stroke="currentColor" stroke-linecap="round" stroke-linejoin="round" stroke-width="1.8">
      <rect x="4" y="4.5" width="7" height="5" rx="1.4" />
      <rect x="13" y="9.5" width="7" height="5" rx="1.4" />
      <rect x="4" y="14.5" width="7" height="5" rx="1.4" />
      <path d="M11 7h2M13 12h-2M11 17h2" />
    </g>
  </symbol>

  <symbol id="kt-question" viewBox="0 0 24 24">
    <g fill="none" stroke="currentColor" stroke-linecap="round" stroke-linejoin="round" stroke-width="1.8">
      <circle cx="12" cy="12" r="8.5" />
      <path d="M9.75 9.6a2.45 2.45 0 0 1 4.75.85c0 1.75-2.5 2.05-2.5 3.9" />
      <path d="M12 17.3h.01" />
    </g>
  </symbol>

  <symbol id="kt-quote" viewBox="0 0 24 24">
    <g fill="none" stroke="currentColor" stroke-linecap="round" stroke-linejoin="round" stroke-width="1.8">
      <path d="M8.25 8.5h3v3.1c0 2.3-1.1 3.9-3.35 4.9" />
      <path d="M14.25 8.5h3v3.1c0 2.3-1.1 3.9-3.35 4.9" />
      <path d="M6 19.5h12" />
    </g>
  </symbol>

  <symbol id="kt-sermon" viewBox="0 0 24 24">
    <g fill="none" stroke="currentColor" stroke-linecap="round" stroke-linejoin="round" stroke-width="1.8">
      <path d="M8 10.25h8l-1 9.25H9z" />
      <path d="M9.5 10.25V7.5a2.5 2.5 0 0 1 5 0v2.75" />
      <path d="M12 4.25v4M10.25 6h3.5" />
      <path d="M6.5 19.5h11" />
    </g>
  </symbol>

  <symbol id="kt-essay" viewBox="0 0 24 24">
    <g fill="none" stroke="currentColor" stroke-linecap="round" stroke-linejoin="round" stroke-width="1.8">
      <path d="M6 3.75h8.25L18 7.5v12.75H6z" />
      <path d="M14 3.75V8h4" />
      <path d="M8.5 16.25l5.85-5.85 2.25 2.25-5.85 5.85-2.8.45z" />
      <path d="M9 8.75h2.5" />
    </g>
  </symbol>

  <symbol id="kt-poem" viewBox="0 0 24 24">
    <g fill="none" stroke="currentColor" stroke-linecap="round" stroke-linejoin="round" stroke-width="1.8">
      <path d="M18.75 4.5C12.25 5.2 7.65 9.6 6.1 17.65c5.4-.8 9.7-4.8 12.65-13.15z" />
      <path d="M6.1 17.65l6.2-6.2" />
      <path d="M5 20h8" />
      <path d="M13 6.9l3.6 3.6" />
    </g>
  </symbol>

  <symbol id="kt-song" viewBox="0 0 24 24">
    <g fill="none" stroke="currentColor" stroke-linecap="round" stroke-linejoin="round" stroke-width="1.8">
      <path d="M10.75 17.25a2.75 2.75 0 1 1-1.2-2.25" />
      <path d="M19.5 15.5a2.75 2.75 0 1 1-1.2-2.25" />
      <path d="M12 17.25V5.5l7.5-1.25V15.5" />
      <path d="M12 8.75l7.5-1.25" />
    </g>
  </symbol>

  <symbol id="kt-book" viewBox="0 0 24 24">
    <g fill="none" stroke="currentColor" stroke-linecap="round" stroke-linejoin="round" stroke-width="1.8">
      <path d="M6 4.5h11.5A1.5 1.5 0 0 1 19 6v13.5H7.5A2.5 2.5 0 0 1 5 17V5.5A1 1 0 0 1 6 4.5z" />
      <path d="M5 17a2.5 2.5 0 0 1 2.5-2.5H19" />
      <path d="M8.5 7.5H15" />
    </g>
  </symbol>

  <symbol id="kt-short-story" viewBox="0 0 24 24">
    <g fill="none" stroke="currentColor" stroke-linecap="round" stroke-linejoin="round" stroke-width="1.8">
      <path d="M5.5 6h9A1.5 1.5 0 0 1 16 7.5V18H7.5A2.5 2.5 0 0 1 5 15.5v-9A.5.5 0 0 1 5.5 6z" />
      <path d="M5 15.5A2.5 2.5 0 0 1 7.5 13H16" />
      <path d="M19 5.5l.6 1.35L21 7.5l-1.4.65L19 9.5l-.6-1.35L17 7.5l1.4-.65z" />
      <path d="M8.5 9h4" />
    </g>
  </symbol>

  <symbol id="kt-lesson" viewBox="0 0 24 24">
    <g fill="none" stroke="currentColor" stroke-linecap="round" stroke-linejoin="round" stroke-width="1.8">
      <rect x="4" y="5" width="16" height="11" rx="2" />
      <path d="M8 9h8M8 12h5" />
      <path d="M12 16v3M8.5 19h7" />
    </g>
  </symbol>

  <symbol id="kt-comment" viewBox="0 0 24 24">
    <g fill="none" stroke="currentColor" stroke-linecap="round" stroke-linejoin="round" stroke-width="1.8">
      <path d="M5 5.5h14a1.5 1.5 0 0 1 1.5 1.5v7.5A1.5 1.5 0 0 1 19 16H9l-4.5 3.5V7A1.5 1.5 0 0 1 6 5.5z" />
      <path d="M8.5 9.5h7M8.5 12.5h4.5" />
    </g>
  </symbol>

  <symbol id="kt-prayer-request" viewBox="0 0 24 24">
    <g fill="none" stroke="currentColor" stroke-linecap="round" stroke-linejoin="round" stroke-width="1.8">
      <path d="M12 20s-7.5-4.8-7.5-10a3.85 3.85 0 0 1 6.8-2.45L12 8.3l.7-.75A3.85 3.85 0 0 1 19.5 10c0 5.2-7.5 10-7.5 10z" />
      <path d="M12 10.4v4.1M9.95 12.45h4.1" />
    </g>
  </symbol>

  <symbol id="kt-event" viewBox="0 0 24 24">
    <g fill="none" stroke="currentColor" stroke-linecap="round" stroke-linejoin="round" stroke-width="1.8">
      <rect x="4.5" y="5.5" width="15" height="14" rx="2" />
      <path d="M8 3.75v3.5M16 3.75v3.5M4.5 9.5h15" />
      <path d="M8.25 13h.01M12 13h.01M15.75 13h.01M8.25 16.25h.01M12 16.25h.01" />
    </g>
  </symbol>

  <symbol id="kt-rsvp" viewBox="0 0 24 24">
    <g fill="none" stroke="currentColor" stroke-linecap="round" stroke-linejoin="round" stroke-width="1.8">
      <rect x="4.5" y="5.5" width="15" height="14" rx="2" />
      <path d="M8 3.75v3.5M16 3.75v3.5M4.5 9.5h15" />
      <path d="M8 14.5l2.35 2.35L16.5 12" />
    </g>
  </symbol>

  <symbol id="kt-person" viewBox="0 0 24 24">
    <g fill="none" stroke="currentColor" stroke-linecap="round" stroke-linejoin="round" stroke-width="1.8">
      <circle cx="12" cy="8.25" r="3.25" />
      <path d="M5.5 20a6.5 6.5 0 0 1 13 0" />
    </g>
  </symbol>

  <symbol id="kt-organization" viewBox="0 0 24 24">
    <g fill="none" stroke="currentColor" stroke-linecap="round" stroke-linejoin="round" stroke-width="1.8">
      <path d="M5 20h14" />
      <path d="M6.5 20V8.25L12 5l5.5 3.25V20" />
      <path d="M9 11h.01M12 11h.01M15 11h.01M9 14.5h.01M12 14.5h.01M15 14.5h.01" />
    </g>
  </symbol>

  <symbol id="kt-group" viewBox="0 0 24 24">
    <g fill="none" stroke="currentColor" stroke-linecap="round" stroke-linejoin="round" stroke-width="1.8">
      <circle cx="12" cy="8" r="3" />
      <path d="M7 20a5 5 0 0 1 10 0" />
      <path d="M5.25 10.25a2.25 2.25 0 0 0 0 4.5M18.75 10.25a2.25 2.25 0 0 1 0 4.5" />
      <path d="M3.75 20a3.75 3.75 0 0 1 3.5-3.75M20.25 20a3.75 3.75 0 0 0-3.5-3.75" />
    </g>
  </symbol>

  <symbol id="kt-place" viewBox="0 0 24 24">
    <g fill="none" stroke="currentColor" stroke-linecap="round" stroke-linejoin="round" stroke-width="1.8">
      <path d="M19 10.25c0 5.25-7 9.75-7 9.75s-7-4.5-7-9.75a7 7 0 0 1 14 0z" />
      <circle cx="12" cy="10.25" r="2.4" />
    </g>
  </symbol>
</svg>
